<?xml version="1.0" encoding="iso-8859-1"?>
<!-- Uploaded to: SVG Repo, www.svgrepo.com, Generator: SVG Repo Mixer Tools -->
<!DOCTYPE svg PUBLIC "-//W3C//DTD SVG 1.1//EN" "http://www.w3.org/Graphics/SVG/1.1/DTD/svg11.dtd">
<svg fill="#000000" height="800px" width="800px" version="1.1" id="Capa_1" xmlns="http://www.w3.org/2000/svg" xmlns:xlink="http://www.w3.org/1999/xlink" 
	 viewBox="0 0 470.675 470.675" xml:space="preserve">
<g id="XMLID_132_">
	<path id="XMLID_145_" d="M188.271,67.836c15.199,0,27.517-12.303,27.517-27.494c0-15.191-12.317-27.494-27.517-27.494
		c-15.185,0-27.487,12.303-27.487,27.494C160.783,55.533,173.086,67.836,188.271,67.836z"/>
	<path id="XMLID_144_" d="M118.91,56.299c0.582,1.907,1.655,3.631,3.08,5.018l32.941,31.769v33.891
		c2.864-0.176,5.79,0.053,8.656,0.935c1.104,0.337,2.098,0.842,3.109,1.309c3.11-4.734,7.462-8.427,12.963-10.104
		c12.364-3.815,26.536,3.516,30.382,16.141c8.487,27.647,5.7,18.546,12.395,40.402l3.97,3.838c-0.215-1.73-0.521-3.423-0.521-5.209
		c0-0.643,0.168-1.249,0.184-1.884l-4.459-7.998V93.094l32.941-31.777c1.439-1.386,2.498-3.11,3.079-5.018l12.272-40.004
		c1.9-6.205-1.593-12.786-7.797-14.693c-6.268-1.93-12.779,1.601-14.695,7.799l-11.384,37.101L208.418,73.13h-40.279l-27.625-26.636
		L129.13,9.4c-1.915-6.198-8.412-9.722-14.694-7.799c-6.205,1.908-9.697,8.488-7.797,14.693L118.91,56.299z"/>
	<polygon id="XMLID_143_" points="173.318,181.437 167.25,201.187 175.078,187.175 	"/>
	<polygon id="XMLID_142_" points="126.235,343.813 219.082,343.813 219.082,288.58 126.219,288.58 	"/>
	<path id="XMLID_141_" d="M159.727,214.937l-24.146,23.289l5.439,31.684c1.18,6.879,7.154,11.729,13.896,11.729
		c0.796,0,1.593-0.061,2.404-0.199c7.677-1.318,12.84-8.618,11.522-16.295l-8.703-50.721
		C159.988,214.577,159.895,214.784,159.727,214.937z"/>
	<path id="XMLID_140_" d="M76.884,213.812c17.728,0,30.979-14.923,30.979-30.996c0-17.121-13.866-30.987-30.979-30.987
		c-17.113,0-30.979,13.866-30.979,30.987C45.905,200.137,60.214,213.812,76.884,213.812z"/>
	<path id="XMLID_139_" d="M114.451,242.255l37.14-35.814c1.624-1.555,2.819-3.501,3.479-5.645l12.104-39.414l-3.645-11.867
		c-0.92-2.979-1.211-6.037-0.98-9.047c-0.797-0.444-1.504-1.026-2.422-1.31c-7.049-2.152-14.418,1.785-16.563,8.779l-12.824,41.805
		l-31.134,30.021H53.181c-4.765,0-13.191,3.601-15.489,9.891L0.828,329.48c-2.543,6.864,0.966,14.487,7.83,17.023
		c6.926,2.551,14.494-1.004,17.021-7.845l13.65-36.971c0,7.897-0.045,30.329-0.045,152.004c0,8.787,7.124,15.903,15.904,15.903
		c8.777,0,15.903-7.116,15.903-15.903v-94.778h11.582v94.778c0,8.787,7.124,15.903,15.903,15.903c8.78,0,15.904-7.116,15.904-15.903
		C114.483,301.181,114.451,394.795,114.451,242.255z"/>
	<polygon id="XMLID_138_" points="418.321,288.58 418.337,343.813 470.675,343.813 470.675,288.58 	"/>
	<path id="XMLID_137_" d="M207.698,264.18c-1.303,7.63,3.8,14.862,11.384,16.242l0.014-40.389l-6.234-6.006L207.698,264.18z"/>
	<path id="XMLID_136_" d="M441.563,224.551l24.762-59.124c2.711-6.489-0.338-13.943-6.819-16.656
		c-6.465-2.726-13.942,0.337-16.653,6.819l-22.094,52.751c-0.047,0.031-28.406,21.274-28.561,21.397
		c-1.286,0-32.42,0.199-42.425,0.298c-7.415,0.101-13.145-0.221-16.593,7.316l-15.351,33.623l0.016,61.293l16.563-36.273
		c0,27.557-0.047,73.535-0.047,158.331c0,8.435,6.849,15.268,15.276,15.268c8.427,0,15.274-6.834,15.274-15.268v-90.993h11.141
		v90.993c0,8.435,6.848,15.268,15.274,15.268c8.427,0,15.275-6.834,15.275-15.268c0-140.986-0.062-106.154-0.062-203.536
		L441.563,224.551z"/>
	<path id="XMLID_135_" d="M352.791,206.318l-5.99,5.785c5.424,7.193,13.973,11.911,23.672,11.911
		c16.44,0,29.754-13.322,29.754-29.747c0-16.447-13.314-29.753-29.754-29.753c-0.582,0-1.134,0.138-1.717,0.176l-9.59,31.248
		C357.941,199.906,355.733,203.485,352.791,206.318z"/>
	<path id="XMLID_134_" d="M236.563,174.289c0,18.225,15.307,31.907,31.899,31.907c16.579,0,31.899-13.659,31.899-31.907
		c0-17.635-14.264-31.914-31.899-31.914C250.827,142.375,236.563,156.654,236.563,174.289z"/>
	<path id="XMLID_133_" d="M307.149,235.491l38.228-36.871c1.67-1.602,2.896-3.608,3.585-5.822l14.233-46.424
		c2.206-7.201-1.853-14.839-9.054-17.045c-7.247-2.275-14.831,1.846-17.053,9.047l-13.193,43.045l-32.051,30.919h-46.777
		l-32.053-30.919l-13.191-43.045c-2.222-7.201-9.852-11.323-17.053-9.047c-7.201,2.206-11.262,9.844-9.055,17.045l14.234,46.424
		c0.689,2.214,1.915,4.221,3.585,5.822l38.241,36.887c0,141.93-0.045,29.362-0.045,217.716c0,9.048,7.34,16.379,16.378,16.379
		c9.04,0,16.379-7.331,16.379-16.379v-97.605h11.951v97.605c0,9.048,7.339,16.379,16.378,16.379c9.039,0,16.379-7.331,16.379-16.379
		C307.196,296.302,307.149,392.382,307.149,235.491z"/>
</g>
</svg>