<?xml version="1.0" encoding="utf-8"?>

<!DOCTYPE svg PUBLIC "-//W3C//DTD SVG 1.1//EN" "http://www.w3.org/Graphics/SVG/1.1/DTD/svg11.dtd">
<!-- Uploaded to: SVG Repo, www.svgrepo.com, Generator: SVG Repo Mixer Tools -->
<svg version="1.1" id="_x32_" xmlns="http://www.w3.org/2000/svg" xmlns:xlink="http://www.w3.org/1999/xlink" 
	 viewBox="0 0 512 512"  xml:space="preserve">
<style type="text/css">
	.st0{fill:#000000;}
</style>
<g>
	<path class="st0" d="M445.806,109.378l-32.503-8.613c-0.845-0.184-1.54-0.871-1.724-1.725l-8.572-32.494
		c-0.225-0.946-1.063-1.624-2.042-1.624c-0.979,0-1.816,0.678-2.042,1.624l-8.572,32.494c-0.193,0.854-0.88,1.54-1.733,1.725
		l-32.494,8.613c-0.954,0.192-1.624,1.03-1.624,2.008c0,0.98,0.67,1.825,1.624,2.009l32.494,8.614
		c0.854,0.176,1.54,0.871,1.733,1.724l8.572,32.494c0.225,0.954,1.063,1.623,2.042,1.623c0.98,0,1.817-0.669,2.042-1.623
		l8.572-32.494c0.184-0.854,0.879-1.549,1.724-1.724l32.503-8.614c0.946-0.184,1.624-1.03,1.624-2.009
		C447.43,110.408,446.752,109.57,445.806,109.378z"/>
	<path class="st0" d="M153.691,464.69l-31.729-8.404c-0.824-0.184-1.502-0.854-1.682-1.69l-8.367-31.716
		c-0.218-0.922-1.034-1.582-1.992-1.582c-0.959,0-1.775,0.661-1.993,1.582l-8.366,31.716c-0.188,0.836-0.858,1.506-1.695,1.69
		l-31.716,8.404c-0.929,0.184-1.582,1.005-1.582,1.959s0.653,1.783,1.582,1.967l31.716,8.404c0.837,0.167,1.507,0.845,1.695,1.683
		l8.366,31.715c0.218,0.929,1.034,1.582,1.993,1.582c0.958,0,1.774-0.653,1.992-1.582l8.367-31.715
		c0.18-0.838,0.858-1.516,1.682-1.683l31.729-8.404c0.921-0.184,1.582-1.013,1.582-1.967S154.612,464.874,153.691,464.69z"/>
	<path class="st0" d="M442.801,431.886l-26.51-7.023c-0.69-0.151-1.256-0.711-1.406-1.406l-6.99-26.501
		c-0.184-0.77-0.866-1.322-1.666-1.322c-0.8,0-1.482,0.553-1.665,1.322l-6.99,26.501c-0.159,0.695-0.716,1.256-1.414,1.406
		l-26.501,7.023c-0.778,0.159-1.322,0.846-1.322,1.64c0,0.796,0.544,1.491,1.322,1.641l26.501,7.023
		c0.699,0.142,1.256,0.712,1.414,1.406l6.99,26.501c0.183,0.779,0.866,1.323,1.665,1.323c0.8,0,1.481-0.544,1.666-1.323l6.99-26.501
		c0.15-0.694,0.716-1.263,1.406-1.406l26.51-7.023c0.77-0.15,1.323-0.845,1.323-1.641
		C444.124,432.732,443.571,432.045,442.801,431.886z"/>
	<path class="st0" d="M142.597,204.584l24.128,6.395c0.636,0.125,1.147,0.652,1.289,1.272l6.366,24.14
		c0.167,0.704,0.787,1.198,1.515,1.198c0.728,0,1.348-0.494,1.515-1.198l6.366-24.14c0.138-0.62,0.652-1.147,1.285-1.272
		l24.132-6.395c0.703-0.134,1.205-0.771,1.205-1.507c0-0.72-0.502-1.339-1.205-1.482l-24.132-6.394
		c-0.632-0.142-1.147-0.644-1.285-1.289l-6.366-24.124c-0.167-0.703-0.787-1.205-1.515-1.205c-0.728,0-1.348,0.502-1.515,1.205
		l-6.366,24.124c-0.142,0.645-0.653,1.147-1.289,1.289l-24.128,6.394c-0.707,0.143-1.206,0.762-1.206,1.482
		C141.391,203.814,141.889,204.451,142.597,204.584z"/>
	<path class="st0" d="M155.47,162.632c16.009-4.203,34.947-7.484,55.434-9.484c1.825-10.957,3.826-19.579,5.877-26.024
		c-22.312,6.127-42.686,16.95-59.984,31.33C156.345,159.81,155.91,161.208,155.47,162.632z"/>
	<path class="st0" d="M227.264,151.833c21.106-1.34,43.222-1.34,64.328,0c-1.381-12.288-2.905-21.521-4.461-28.05
		c-8.998-1.565-18.256-2.385-27.703-2.385c-9.446,0-18.704,0.82-27.711,2.385C230.169,130.312,228.641,139.554,227.264,151.833z"/>
	<path class="st0" d="M362.059,158.454c-17.298-14.38-37.664-25.204-59.984-31.33c2.042,6.445,4.052,15.067,5.872,26.024
		c20.491,2.001,39.43,5.282,55.43,9.484c-0.431-1.424-0.875-2.822-1.306-4.169L362.059,158.454z"/>
	<path class="st0" d="M140.023,178.083c-1.418,0.418-2.812,0.862-4.165,1.306c-14.384,17.302-25.204,37.676-31.33,60
		c6.449-2.05,15.054-4.068,26.015-5.876C132.543,213.022,135.829,194.071,140.023,178.083z"/>
	<path class="st0" d="M222.485,225.737c24.136-0.753,49.75-0.753,73.886,0c-0.758-23.497-1.996-44.606-3.524-61.465
		c-21.91-1.315-44.933-1.315-66.839,0C224.481,181.13,223.243,202.249,222.485,225.737z"/>
	<path class="st0" d="M309.797,165.544c2.256,16.8,4.072,37.709,5.19,60.929c23.22,1.114,44.121,2.93,60.921,5.19
		c-1.95-21.211-5.144-40.69-9.191-56.92C350.483,170.701,331.009,167.494,309.797,165.544z"/>
	<path class="st0" d="M378.833,178.083c4.194,15.988,7.471,34.93,9.48,55.43c10.961,1.825,19.562,3.826,26.007,5.851
		c-6.127-22.307-16.946-42.673-31.33-59.975C381.638,178.946,380.252,178.51,378.833,178.083z"/>
	<path class="st0" d="M129.229,314.188c-1.335-21.111-1.335-43.208,0-64.319c-12.279,1.372-21.517,2.913-28.046,4.462
		c-1.561,8.99-2.381,18.248-2.381,27.698c0,9.442,0.82,18.7,2.381,27.707C107.712,311.283,116.949,312.807,129.229,314.188z"/>
	<path class="st0" d="M203.137,318.976c-0.754-24.149-0.758-49.746,0-73.886c-23.504,0.761-44.603,2-61.469,3.524
		c-1.31,21.914-1.306,44.916,0,66.83C158.53,316.967,179.632,318.205,203.137,318.976z"/>
	<path class="st0" d="M221.987,244.596c-0.515,24.442-0.515,50.424,0,74.874c24.45,0.511,50.432,0.502,74.882,0
		c0.511-24.45,0.511-50.432,0-74.874C272.419,244.068,246.437,244.068,221.987,244.596z"/>
	<path class="st0" d="M377.189,315.444c1.306-21.914,1.306-44.933,0-66.83c-16.867-1.54-37.969-2.763-61.469-3.524
		c0.749,24.132,0.754,49.746,0,73.886C339.22,318.205,360.322,316.984,377.189,315.444z"/>
	<path class="st0" d="M417.673,309.735v-0.009c1.561-8.998,2.381-18.256,2.381-27.698c0-9.45-0.82-18.708-2.381-27.698
		c-6.525-1.549-15.766-3.089-28.054-4.462c1.335,21.111,1.335,43.2,0,64.319C401.907,312.807,411.148,311.283,417.673,309.735z"/>
	<path class="st0" d="M104.527,324.676c6.127,22.316,16.954,42.698,31.348,60c1.352,0.444,2.732,0.879,4.148,1.306
		c-4.194-16.004-7.479-34.956-9.48-55.43C119.581,328.719,110.977,326.718,104.527,324.676z"/>
	<path class="st0" d="M152.139,389.322c16.234,4.034,35.704,7.232,56.919,9.182c-2.256-16.8-4.076-37.7-5.19-60.92
		c-23.22-1.114-44.122-2.93-60.92-5.19C144.894,353.613,148.092,373.083,152.139,389.322z"/>
	<path class="st0" d="M222.485,338.32c0.758,23.496,1.996,44.606,3.524,61.473c21.91,1.306,44.929,1.306,66.839,0
		c1.527-16.875,2.766-37.977,3.524-61.473C272.235,339.073,246.621,339.065,222.485,338.32z"/>
	<path class="st0" d="M314.987,337.584c-1.118,23.22-2.934,44.138-5.19,60.92c21.211-1.942,40.685-5.131,56.92-9.182
		c4.047-16.238,7.241-35.717,9.191-56.928C359.108,334.645,338.207,336.479,314.987,337.584z"/>
	<path class="st0" d="M382.973,384.676c14.393-17.302,25.221-37.676,31.348-60c-6.445,2.042-15.046,4.043-26.007,5.876
		c-2,20.482-5.286,39.425-9.48,55.43C380.248,385.555,381.621,385.12,382.973,384.676z"/>
	<path class="st0" d="M155.479,401.434c0.431,1.414,0.875,2.804,1.31,4.152c17.298,14.389,37.672,25.22,59.984,31.339
		c-2.042-6.445-4.043-15.058-5.864-26.024C190.417,408.909,171.479,405.628,155.479,401.434z"/>
	<path class="st0" d="M227.264,412.224c1.377,12.271,2.905,21.52,4.453,28.041c9.007,1.565,18.265,2.386,27.711,2.386
		c9.446,0,18.704-0.82,27.711-2.386c1.548-6.521,3.072-15.753,4.453-28.041C270.486,413.562,248.371,413.571,227.264,412.224z"/>
	<path class="st0" d="M302.076,436.925c22.32-6.118,42.694-16.959,59.996-31.348c0.44-1.356,0.875-2.737,1.306-4.143
		c-16,4.194-34.939,7.475-55.43,9.467C306.127,421.866,304.118,430.471,302.076,436.925z"/>
	<rect x="245.57" y="32.009" class="st0" width="27.715" height="77.151"/>
	<rect x="220.597" class="st0" width="78.821" height="21.428"/>
</g>
</svg>