<svg width="599" height="601" viewBox="0 0 599 601" fill="none" xmlns="http://www.w3.org/2000/svg">
<path fill-rule="evenodd" clip-rule="evenodd" d="M529.5 486.5C526.181 463.53 516.681 443.53 501 426.5C472.181 397.914 438.015 378.247 398.5 367.5C389.62 375.208 380.286 382.375 370.5 389C323.167 416.333 275.833 416.333 228.5 389C219.101 382.959 210.435 375.959 202.5 368C161.987 377.503 127.153 397.003 98.0001 426.5C82.3191 443.53 72.8191 463.53 69.5001 486.5C68.9001 489.625 67.7331 489.958 66.0001 487.5C2.05406 403.423 -15.2789 310.423 14.0001 208.5C49.0891 108.411 117.256 42.5775 218.5 11C320.965 -14.71 412.965 5.62331 494.5 72C572.149 142.187 606.315 229.687 597 334.5C589.931 392.76 567.931 444.426 531 489.5C530.768 488.263 530.268 487.263 529.5 486.5Z" fill="#E9B307"/>
<path fill-rule="evenodd" clip-rule="evenodd" d="M284.5 108.5C335.493 105.695 373.66 126.361 399 170.5C419.899 212.613 421.899 255.613 405 299.5C376.707 360.23 329.874 383.397 264.5 369C229.541 354.707 205.374 329.874 192 294.5C174.076 241.621 181.742 192.954 215 148.5C233.703 127.237 256.87 113.904 284.5 108.5Z" fill="#FDFDFE"/>
<path fill-rule="evenodd" clip-rule="evenodd" d="M529.5 486.5C529.244 488.792 529.577 490.959 530.5 493C460.753 571.934 373.086 607.268 267.5 599C187.363 589.104 121.03 553.771 68.5 493C69.423 490.959 69.756 488.792 69.5 486.5C72.819 463.53 82.319 443.53 98 426.5C127.153 397.003 161.987 377.503 202.5 368C210.435 375.959 219.101 382.959 228.5 389C275.833 416.333 323.167 416.333 370.5 389C380.286 382.375 389.62 375.208 398.5 367.5C438.015 378.247 472.181 397.914 501 426.5C516.681 443.53 526.181 463.53 529.5 486.5Z" fill="#FEFEFE"/>
</svg>
