<svg width="200" height="200" viewBox="0 0 200 200" fill="none" xmlns="http://www.w3.org/2000/svg">
<circle cx="100" cy="100" r="100" fill="#BBF7D0"/>
<g clip-path="url(#clip0_137_74)">
<path d="M89.0003 58.0156C93.0368 58.0156 96.3082 54.7482 96.3082 50.7139C96.3082 46.6795 93.0371 43.4121 89.0003 43.4121C84.9676 43.4121 81.7004 46.6795 81.7004 50.7139C81.7002 54.7482 84.9676 58.0156 89.0003 58.0156Z" fill="#1F2937"/>
<path d="M70.5798 54.9516C70.7343 55.4581 71.0193 55.9159 71.3977 56.2843L80.1461 64.7214V73.722C80.9067 73.6753 81.6838 73.7361 82.4449 73.9703C82.7381 74.0598 83.0021 74.1939 83.2706 74.318C84.0965 73.0607 85.2523 72.08 86.7132 71.6346C89.9968 70.6214 93.7606 72.5683 94.782 75.9212C97.0359 83.2636 96.2958 80.8466 98.0738 86.651L99.1281 87.6703C99.071 87.2109 98.9898 86.7613 98.9898 86.2869C98.9898 86.1162 99.0344 85.9552 99.0386 85.7866L97.8544 83.6625V64.7235L106.603 56.2843C106.985 55.9162 107.266 55.4583 107.42 54.9516L110.68 44.3275C111.184 42.6796 110.257 40.9319 108.609 40.4254C106.944 39.9129 105.215 40.8506 104.706 42.4966L101.683 52.3498L94.3509 59.4215H83.6538L76.3173 52.3477L73.2939 42.4964C72.7854 40.8503 71.0599 39.9144 69.3916 40.4252C67.7437 40.9319 66.8163 42.6794 67.3209 44.3273L70.5798 54.9516Z" fill="#1F2937"/>
<path d="M85.0292 88.1853L83.4177 93.4304L85.4967 89.7092L85.0292 88.1853Z" fill="#1F2937"/>
<path d="M72.525 131.308H97.1829V116.64H72.5208L72.525 131.308Z" fill="#1F2937"/>
<path d="M81.4197 97.082L75.0071 103.267L76.4516 111.682C76.7649 113.508 78.3515 114.796 80.142 114.796C80.3534 114.796 80.5651 114.78 80.7804 114.744C82.8193 114.394 84.1904 112.455 83.8404 110.416L81.5291 96.9458C81.489 96.9864 81.4643 97.0414 81.4197 97.082Z" fill="#1F2937"/>
<path d="M59.4187 96.7833C64.1268 96.7833 67.646 92.8202 67.646 88.5515C67.646 84.0046 63.9635 80.3221 59.4187 80.3221C54.8739 80.3221 51.1914 84.0046 51.1914 88.5515C51.1914 93.1516 54.9915 96.7833 59.4187 96.7833Z" fill="#1F2937"/>
<path d="M69.3955 104.337L79.259 94.8258C79.6903 94.4128 80.0077 93.896 80.183 93.3266L83.3975 82.8592L82.4295 79.7076C82.1852 78.9165 82.1079 78.1043 82.1692 77.3049C81.9576 77.187 81.7698 77.0325 81.526 76.957C79.6539 76.3855 77.6969 77.4311 77.1273 79.2885L73.7215 90.3909L65.4531 98.3638H53.1237C51.8582 98.3638 49.6205 99.3201 49.0102 100.991L39.22 127.502C38.5446 129.325 39.4765 131.349 41.2995 132.023C43.1388 132.7 45.1487 131.756 45.8198 129.939L49.4449 120.121C49.4449 122.218 49.433 128.175 49.433 160.489C49.433 162.823 51.3249 164.713 53.6567 164.713C55.9877 164.713 57.8802 162.823 57.8802 160.489V135.319H60.9561V160.489C60.9561 162.823 62.848 164.713 65.1795 164.713C67.5113 164.713 69.4032 162.823 69.4032 160.489C69.404 119.986 69.3955 144.848 69.3955 104.337Z" fill="#1F2937"/>
<path d="M150.096 116.64L150.1 131.308H164V116.64H150.096Z" fill="#1F2937"/>
<path d="M94.1597 110.16C93.8136 112.186 95.1688 114.107 97.183 114.473L97.1867 103.747L95.5311 102.152L94.1597 110.16Z" fill="#1F2937"/>
<path d="M156.269 99.6353L162.845 83.9334C163.565 82.21 162.755 80.2304 161.034 79.5099C159.317 78.786 157.331 79.5994 156.611 81.3209L150.744 95.3303C150.731 95.3385 143.2 100.98 143.159 101.013C142.817 101.013 134.549 101.066 131.892 101.092C129.922 101.119 128.401 101.033 127.485 103.035L123.408 111.964L123.412 128.242L127.811 118.609C127.811 125.928 127.798 138.138 127.798 160.658C127.798 162.898 129.617 164.713 131.855 164.713C134.093 164.713 135.912 162.898 135.912 160.658V136.492H138.871V160.658C138.871 162.898 140.689 164.713 142.927 164.713C145.165 164.713 146.984 162.898 146.984 160.658C146.984 123.215 146.967 132.466 146.967 106.604L156.269 99.6353Z" fill="#1F2937"/>
<path d="M132.693 94.7931L131.102 96.3294C132.543 98.2397 134.813 99.4927 137.389 99.4927C141.755 99.4927 145.291 95.9547 145.291 91.5926C145.291 87.2247 141.755 83.6909 137.389 83.6909C137.234 83.6909 137.088 83.7276 136.933 83.7377L134.386 92.0364C134.061 93.0902 133.474 94.0407 132.693 94.7931Z" fill="#1F2937"/>
<path d="M101.826 86.287C101.826 91.1271 105.891 94.7607 110.297 94.7607C114.7 94.7607 118.769 91.1332 118.769 86.287C118.769 81.6036 114.981 77.8114 110.297 77.8114C105.614 77.8114 101.826 81.6036 101.826 86.287Z" fill="#1F2937"/>
<path d="M120.572 102.541L130.724 92.7487C131.168 92.3232 131.493 91.7905 131.676 91.2025L135.456 78.8734C136.042 76.961 134.964 74.9325 133.052 74.3467C131.127 73.7425 129.113 74.8369 128.523 76.7493L125.019 88.1811L116.507 96.3924H104.084L95.5716 88.1811L92.0684 76.7493C91.4783 74.8369 89.4519 73.7422 87.5395 74.3467C85.6271 74.9325 84.5486 76.961 85.1347 78.8734L88.915 91.2025C89.0979 91.7905 89.4235 92.3235 89.867 92.7487L100.023 102.545C100.023 140.238 100.011 110.343 100.011 160.365C100.011 162.768 101.96 164.715 104.361 164.715C106.761 164.715 108.71 162.768 108.71 160.365V134.444H111.884V160.365C111.884 162.768 113.833 164.715 116.234 164.715C118.635 164.715 120.584 162.768 120.584 160.365C120.584 118.691 120.572 144.207 120.572 102.541Z" fill="#1F2937"/>
</g>
<defs>
<clipPath id="clip0_137_74">
<rect width="125" height="125" fill="white" transform="translate(39 40)"/>
</clipPath>
</defs>
</svg>
