<svg width="200" height="200" viewBox="0 0 200 200" fill="none" xmlns="http://www.w3.org/2000/svg">
<circle cx="100" cy="100" r="100" fill="#FED7AA"/>
<g clip-path="url(#clip0_137_71)">
<path d="M94.1929 76.7575H96.9737C98.0708 76.7575 98.9605 75.8681 98.9605 74.7707C98.9605 73.6736 98.0711 72.7839 96.9737 72.7839H94.1929C93.0957 72.7839 92.2061 73.6734 92.2061 74.7707C92.2061 75.8678 93.0955 76.7575 94.1929 76.7575Z" fill="#1F2937"/>
<path d="M146.195 39H53.8052C52.708 39 51.8184 39.8895 51.8184 40.9868V157.013C51.8184 158.111 52.7078 159 53.8052 159H146.195C147.292 159 148.182 158.111 148.182 157.013V40.9868C148.182 39.8895 147.292 39 146.195 39ZM141.399 42.9734L136.49 47.8826H63.5106L58.6016 42.9734H141.399ZM118.412 98.4734C115.645 98.4734 113.394 96.2227 113.394 93.4556V91.2042C118.587 91.3245 121.282 92.4234 124.124 93.5836C127.017 94.7641 130.001 95.9801 135.326 96.2238V146.144H123.806C126.031 143.826 127.403 140.683 127.403 137.224V107.464C127.403 102.507 123.369 98.4734 118.412 98.4734ZM97.4905 58.8832C97.517 58.883 97.543 58.8811 97.5695 58.8811C104.104 58.8811 109.42 64.1977 109.42 70.732V93.4556C109.42 96.9401 111.414 99.9654 114.319 101.457L106.111 108.806V70.5335C106.111 65.055 102.475 60.4104 97.4905 58.8832ZM89.0287 81.9218C90.1258 81.9218 91.0155 81.0323 91.0155 79.935V76.2066C91.0155 73.8813 89.1236 71.9895 86.7984 71.9895H85.7186V70.732C85.7186 70.3451 85.7388 69.9628 85.7751 69.585C86.2469 65.5036 89.7222 62.3236 93.928 62.3236C98.4545 62.3236 102.137 66.0066 102.137 70.533V79.935H102.138C102.138 84.4617 98.455 88.1445 93.9283 88.1445C89.4016 88.1445 85.7186 84.4615 85.7186 79.935V75.9628H86.7984C86.9327 75.9628 87.0421 76.0723 87.0421 76.2066V79.935C87.0419 81.0323 87.9313 81.9218 89.0287 81.9218ZM89.5907 91.3172V93.1477C89.5907 96.7223 88.1753 100.118 85.7184 102.626V88.928C86.8382 89.9513 88.1498 90.7662 89.5907 91.3172ZM93.5645 93.1479V92.1089C93.6857 92.1124 93.8064 92.1183 93.9285 92.1183C97.0884 92.1183 99.9707 90.9084 102.138 88.9284V112.364L100.853 113.514C95.6652 113.073 90.997 110.016 88.4997 105.467C91.7134 102.218 93.5645 97.7995 93.5645 93.1479ZM113.394 74.9688V70.7318C113.394 62.006 106.295 54.9075 97.5695 54.9075C89.3678 54.9075 82.528 61.1801 81.7452 69.1793C81.6958 69.6241 81.7452 74.9688 81.7452 74.9688H64.6745V51.8559H135.326V74.9688H113.394ZM135.326 78.9424V92.246C130.795 92.0135 128.274 90.9855 125.625 89.9046C122.551 88.6498 119.375 87.3555 113.394 87.2302V78.9424H135.326ZM81.745 78.9424V79.9352V96.8494C79.4106 96.3989 77.6793 95.6946 75.873 94.9577C72.9805 93.7777 69.9979 92.5627 64.6743 92.3187V78.9424H81.745ZM74.3723 98.637C76.4755 99.495 78.6433 100.376 81.7452 100.885V105.927C78.291 109.208 76.2887 113.793 76.2887 118.631V135.543C76.2887 139.717 78.0557 143.484 80.8773 146.144H64.6748V96.2965C69.2045 96.529 71.7243 97.5565 74.3723 98.637ZM80.2619 135.543V133.611C82.9213 136.433 86.6887 138.199 90.8634 138.199H92.4259L91.3666 146.144H90.8629C85.0176 146.144 80.2619 141.388 80.2619 135.543ZM81.1989 127.975C83.0324 129.244 85.2543 129.99 87.6477 129.99H92.3852L89.7911 134.172C85.9572 133.785 82.7226 131.346 81.1989 127.975ZM86.9282 125.981C83.192 125.618 80.2621 122.46 80.2621 118.63C80.2619 114.486 82.1631 110.581 85.3865 108.023C88.0019 112.379 92.2391 115.553 97.1045 116.87L86.9282 125.981ZM119.11 102.501C121.547 102.843 123.429 104.935 123.429 107.464V113.558L104.75 128.929C102.245 127.084 99.1731 126.016 95.9552 126.016H92.8452L119.11 102.501ZM97.026 130.046C100.01 130.347 102.738 131.891 104.551 134.226H94.4331L97.026 130.046ZM96.4345 138.2H113.499C114.596 138.2 115.485 137.31 115.485 136.213C115.485 135.116 114.596 134.226 113.499 134.226H109.225C108.774 133.328 108.237 132.486 107.624 131.71L123.43 118.704V137.224C123.43 142.142 119.428 146.144 114.51 146.144H95.3758L96.4345 138.2ZM55.792 45.7833L60.7009 50.6923V147.308L55.792 152.217V45.7833ZM58.6016 155.026L63.5106 150.117H136.49L141.399 155.026H58.6016ZM144.209 152.217L139.3 147.308V50.6923L144.209 45.7833V152.217Z" fill="#1F2937"/>
</g>
<defs>
<clipPath id="clip0_137_71">
<rect width="120" height="120" fill="white" transform="translate(40 39)"/>
</clipPath>
</defs>
</svg>
