<svg width="200" height="200" viewBox="0 0 200 200" fill="none" xmlns="http://www.w3.org/2000/svg">
<circle cx="100" cy="100" r="100" fill="#D9F99D"/>
<g clip-path="url(#clip0_137_72)">
<path d="M148.559 61.8419C149.031 63.0138 148.384 63.9724 147.121 63.9724H52.8783C51.6152 63.9724 50.9415 63.0037 51.3816 61.8197L58.3148 43.1531C58.7548 41.9691 60.1482 41 61.4111 41H137.861C139.124 41 140.544 41.9583 141.017 43.1298L148.559 61.8419Z" fill="#1F2937"/>
<path d="M50.5818 75.692C50.5818 80.2896 54.3088 84.0163 58.9064 84.0163C62.3675 84.0163 65.3342 81.9045 66.5895 78.8988C66.8385 78.3031 67.414 78.3116 67.6652 78.9113C68.9235 81.9104 71.8876 84.0163 75.3434 84.0163C78.8143 84.0163 81.7889 81.8917 83.0383 78.872C83.281 78.2844 83.8297 78.2373 84.059 78.8056C85.2918 81.8603 88.2843 84.0163 91.7811 84.0163C95.2774 84.0163 98.2693 81.861 99.5021 78.8059C99.7314 78.2376 100.268 78.2376 100.497 78.8059C101.73 81.861 104.723 84.0163 108.219 84.0163C111.715 84.0163 114.707 81.861 115.94 78.8059C116.17 78.2376 116.705 78.2376 116.934 78.8059C118.167 81.8606 121.16 84.0166 124.656 84.0166C128.153 84.0166 131.145 81.8613 132.378 78.8063C132.607 78.238 133.143 78.238 133.372 78.8063C134.605 81.861 137.597 84.017 141.094 84.017C145.692 84.017 149.419 80.2899 149.419 75.6927V72.1737C149.419 72.1737 149.419 70.531 147.684 70.531C123.984 70.531 77.0185 70.531 52.8853 70.531C50.5821 70.531 50.5821 72.2385 50.5821 72.2385L50.5818 75.692Z" fill="#1F2937"/>
<path d="M147.003 153.118C147.003 153.117 147.004 153.115 147.004 153.114V120.105C147.004 118.103 145.365 116.465 143.363 116.465H56.6365C54.6343 116.465 52.9958 118.103 52.9958 120.105V153.114C52.9958 153.329 52.9958 154.289 52.9958 154.568C52.9958 158.121 55.8755 161 59.4275 161C61.8626 161 63.9764 159.644 65.0668 157.648C65.2226 157.362 65.3345 156.755 66.8819 156.755H133.219C134.675 156.755 134.944 157.354 135.097 157.636C136.185 159.639 138.303 161 140.742 161C144.294 161 147.004 158.121 147.004 154.568C147.004 154.069 147.003 153.942 147.003 153.118Z" fill="#1F2937"/>
<path d="M69.8458 89.676C69.8023 89.0829 69.3086 88.6101 68.7057 88.6101H65.3886C64.7568 88.6101 64.2402 89.1267 64.2402 89.7584V89.7735V108.784V108.799C64.2402 109.431 64.7571 109.947 65.3886 109.947H68.7057C69.309 109.947 69.8027 109.474 69.8458 108.881C69.8488 108.871 69.854 108.861 69.854 108.851V108.799V89.7581V89.7054C69.854 89.6953 69.8488 89.6858 69.8458 89.676Z" fill="#1F2937"/>
<path d="M136.065 89.676C136.021 89.0829 135.528 88.6101 134.925 88.6101H131.608C130.976 88.6101 130.459 89.1267 130.459 89.7584V89.7735V108.784V108.799C130.459 109.431 130.976 109.947 131.608 109.947H134.925C135.528 109.947 136.022 109.474 136.065 108.881C136.068 108.871 136.073 108.861 136.073 108.851V108.799V89.7581V89.7054C136.073 89.6953 136.068 89.6858 136.065 89.676Z" fill="#1F2937"/>
</g>
<defs>
<clipPath id="clip0_137_72">
<rect width="120" height="120" fill="white" transform="translate(40 41)"/>
</clipPath>
</defs>
</svg>
