<svg width="200" height="200" viewBox="0 0 200 200" fill="none" xmlns="http://www.w3.org/2000/svg">
<circle cx="100" cy="100" r="100" fill="#FEF08A"/>
<path d="M146.547 60.84L137.976 58.569C137.754 58.5204 137.57 58.3393 137.522 58.1141L135.262 49.5464C135.202 49.2969 134.981 49.1182 134.723 49.1182C134.465 49.1182 134.244 49.2969 134.185 49.5464L131.925 58.1141C131.874 58.3393 131.693 58.5202 131.468 58.569L122.9 60.84C122.648 60.8906 122.472 61.1115 122.472 61.3694C122.472 61.6278 122.648 61.8506 122.9 61.8991L131.468 64.1704C131.693 64.2168 131.874 64.4001 131.925 64.625L134.185 73.1927C134.244 73.4443 134.465 73.6207 134.723 73.6207C134.982 73.6207 135.202 73.4443 135.262 73.1927L137.522 64.625C137.57 64.3998 137.754 64.2165 137.976 64.1704L146.547 61.8991C146.796 61.8506 146.975 61.6276 146.975 61.3694C146.975 61.1115 146.796 60.8906 146.547 60.84Z" fill="#1F2937"/>
<path d="M69.5241 154.526L61.1581 152.31C60.9408 152.261 60.762 152.085 60.7146 151.864L58.5084 143.502C58.4509 143.258 58.2358 143.084 57.9832 143.084C57.7303 143.084 57.5152 143.259 57.4577 143.502L55.2518 151.864C55.2022 152.085 55.0256 152.261 54.8049 152.31L46.4423 154.526C46.1973 154.574 46.0251 154.791 46.0251 155.042C46.0251 155.294 46.1973 155.512 46.4423 155.561L54.8049 157.777C55.0256 157.821 55.2022 158 55.2518 158.221L57.4577 166.583C57.5152 166.828 57.7303 167 57.9832 167C58.2358 167 58.4509 166.828 58.5084 166.583L60.7146 158.221C60.762 158 60.9408 157.821 61.1581 157.777L69.5241 155.561C69.767 155.512 69.9412 155.294 69.9412 155.042C69.9412 154.791 69.767 154.574 69.5241 154.526Z" fill="#1F2937"/>
<path d="M145.754 145.876L138.764 144.024C138.582 143.985 138.433 143.837 138.394 143.654L136.55 136.666C136.502 136.463 136.322 136.318 136.111 136.318C135.9 136.318 135.72 136.463 135.672 136.666L133.829 143.654C133.787 143.837 133.64 143.985 133.456 144.024L126.469 145.876C126.264 145.918 126.12 146.099 126.12 146.309C126.12 146.518 126.264 146.702 126.469 146.741L133.456 148.593C133.641 148.63 133.787 148.781 133.829 148.964L135.672 155.951C135.72 156.157 135.9 156.3 136.111 156.3C136.322 156.3 136.502 156.157 136.55 155.951L138.394 148.964C138.433 148.781 138.582 148.631 138.764 148.593L145.754 146.741C145.957 146.702 146.103 146.518 146.103 146.309C146.103 146.099 145.957 145.918 145.754 145.876Z" fill="#1F2937"/>
<path d="M66.599 85.943L72.9609 87.6292C73.1286 87.6622 73.2633 87.8011 73.3007 87.9646L74.9793 94.3296C75.0233 94.5153 75.1868 94.6455 75.3787 94.6455C75.5707 94.6455 75.7342 94.5153 75.7782 94.3296L77.4567 87.9646C77.4931 87.8011 77.6287 87.6622 77.7956 87.6292L84.1585 85.943C84.3438 85.9077 84.4762 85.7397 84.4762 85.5457C84.4762 85.3558 84.3438 85.1926 84.1585 85.1549L77.7956 83.469C77.6289 83.4315 77.4931 83.2992 77.4567 83.1291L75.7782 76.7683C75.7342 76.5829 75.5707 76.4506 75.3787 76.4506C75.1868 76.4506 75.0233 76.5829 74.9793 76.7683L73.3007 83.1291C73.2633 83.2992 73.1286 83.4315 72.9609 83.469L66.599 85.1549C66.4126 85.1926 66.281 85.3558 66.281 85.5457C66.281 85.74 66.4123 85.9079 66.599 85.943Z" fill="#1F2937"/>
<path d="M69.9932 74.8815C74.2143 73.7733 79.2077 72.9082 84.6096 72.3808C85.0908 69.4918 85.6184 67.2184 86.1592 65.519C80.2761 67.1346 74.9041 69.9883 70.3431 73.7799C70.2239 74.1374 70.1092 74.506 69.9932 74.8815Z" fill="#1F2937"/>
<path d="M88.9233 72.0341C94.4884 71.6808 100.32 71.6808 105.885 72.0341C105.521 68.7941 105.119 66.3596 104.709 64.6381C102.336 64.2255 99.895 64.0093 97.4041 64.0093C94.9134 64.0093 92.4724 64.2255 90.0975 64.6381C89.6893 66.3596 89.2864 68.7965 88.9233 72.0341Z" fill="#1F2937"/>
<path d="M124.465 73.7799C119.904 69.9883 114.534 67.1343 108.649 65.519C109.187 67.2184 109.717 69.4918 110.197 72.3808C115.6 72.9084 120.594 73.7736 124.812 74.8815C124.699 74.506 124.582 74.1374 124.468 73.7823L124.465 73.7799Z" fill="#1F2937"/>
<path d="M65.9203 78.9554C65.5464 79.0657 65.1789 79.1827 64.8221 79.2998C61.0295 83.8619 58.1765 89.2339 56.5613 95.1201C58.2617 94.5796 60.5306 94.0475 63.4207 93.5708C63.948 88.1679 64.8145 83.171 65.9203 78.9554Z" fill="#1F2937"/>
<path d="M87.6631 91.5205C94.0271 91.3219 100.781 91.3219 107.145 91.5205C106.945 85.325 106.618 79.7591 106.216 75.3139C100.439 74.9672 94.368 74.9672 88.592 75.3139C88.1894 79.7589 87.8629 85.3273 87.6631 91.5205Z" fill="#1F2937"/>
<path d="M110.685 75.6493C111.28 80.079 111.758 85.5921 112.053 91.7146C118.176 92.0083 123.687 92.4871 128.116 93.083C127.602 87.4903 126.76 82.3542 125.693 78.0748C121.413 77.009 116.278 76.1635 110.685 75.6493Z" fill="#1F2937"/>
<path d="M128.888 78.9554C129.994 83.171 130.858 88.1655 131.387 93.5708C134.277 94.052 136.545 94.5796 138.245 95.1135C136.629 89.2318 133.776 83.8619 129.984 79.2998C129.627 79.183 129.262 79.068 128.888 78.9554Z" fill="#1F2937"/>
<path d="M63.0743 114.843C62.7223 109.276 62.7223 103.45 63.0743 97.8834C59.8366 98.2452 57.4008 98.6515 55.6793 99.0599C55.2677 101.43 55.0515 103.871 55.0515 106.363C55.0515 108.853 55.2677 111.294 55.6793 113.669C57.4008 114.077 59.8364 114.478 63.0743 114.843Z" fill="#1F2937"/>
<path d="M82.5615 116.105C82.3627 109.738 82.3617 102.988 82.5615 96.6233C76.3642 96.8239 70.801 97.1506 66.3539 97.5525C66.0085 103.331 66.0095 109.396 66.3539 115.174C70.7999 115.575 76.3639 115.902 82.5615 116.105Z" fill="#1F2937"/>
<path d="M87.5318 96.4931C87.396 102.938 87.396 109.788 87.5318 116.235C93.9786 116.37 100.829 116.368 107.276 116.235C107.411 109.788 107.411 102.938 107.276 96.4931C100.829 96.3539 93.9786 96.3539 87.5318 96.4931Z" fill="#1F2937"/>
<path d="M128.454 115.174C128.799 109.396 128.799 103.326 128.454 97.5525C124.007 97.1464 118.443 96.8239 112.247 96.6233C112.444 102.986 112.445 109.74 112.247 116.105C118.443 115.902 124.007 115.58 128.454 115.174Z" fill="#1F2937"/>
<path d="M139.129 113.668V113.666C139.54 111.294 139.757 108.852 139.757 106.363C139.757 103.871 139.54 101.43 139.129 99.0597C137.408 98.6513 134.972 98.2452 131.732 97.8832C132.084 103.45 132.084 109.274 131.732 114.842C134.972 114.478 137.408 114.077 139.129 113.668Z" fill="#1F2937"/>
<path d="M56.561 117.608C58.1766 123.492 61.0313 128.866 64.8266 133.428C65.1831 133.545 65.547 133.66 65.9203 133.773C64.8145 129.553 63.9483 124.556 63.4207 119.157C60.5304 118.674 58.2617 118.146 56.561 117.608Z" fill="#1F2937"/>
<path d="M69.1148 134.653C73.3953 135.717 78.529 136.56 84.1228 137.074C83.5279 132.645 83.048 127.134 82.7543 121.011C76.6318 120.718 71.1206 120.239 66.6914 119.643C67.2045 125.238 68.0477 130.371 69.1148 134.653Z" fill="#1F2937"/>
<path d="M87.6631 121.205C87.8629 127.401 88.1894 132.967 88.5923 137.414C94.3693 137.758 100.439 137.758 106.216 137.414C106.618 132.965 106.945 127.401 107.145 121.205C100.781 121.404 94.0271 121.402 87.6631 121.205Z" fill="#1F2937"/>
<path d="M112.053 121.011C111.758 127.134 111.28 132.649 110.685 137.074C116.278 136.562 121.412 135.721 125.693 134.653C126.76 130.372 127.602 125.236 128.116 119.643C123.687 120.236 118.176 120.72 112.053 121.011Z" fill="#1F2937"/>
<path d="M129.979 133.428C133.774 128.866 136.629 123.494 138.245 117.608C136.545 118.146 134.278 118.674 131.388 119.157C130.86 124.558 129.994 129.553 128.888 133.773C129.261 133.66 129.623 133.545 129.979 133.428Z" fill="#1F2937"/>
<path d="M69.9956 137.847C70.1092 138.22 70.2263 138.586 70.341 138.942C74.902 142.736 80.2741 145.591 86.1571 147.205C85.6187 145.505 85.0911 143.234 84.6109 140.343C79.2078 139.818 74.2144 138.953 69.9956 137.847Z" fill="#1F2937"/>
<path d="M88.9233 140.692C89.2864 143.927 89.6893 146.366 90.0975 148.086C92.4724 148.498 94.9134 148.715 97.4041 148.715C99.8947 148.715 102.336 148.498 104.711 148.086C105.119 146.366 105.521 143.932 105.885 140.692C100.32 141.045 94.4887 141.047 88.9233 140.692Z" fill="#1F2937"/>
<path d="M108.649 147.205C114.534 145.592 119.906 142.733 124.468 138.939C124.584 138.582 124.699 138.218 124.813 137.847C120.594 138.953 115.6 139.818 110.197 140.343C109.717 143.234 109.188 145.503 108.649 147.205Z" fill="#1F2937"/>
<path d="M101.058 40.4398H93.75V60.7824H101.058V40.4398Z" fill="#1F2937"/>
<path d="M107.948 32H87.1653V37.65H107.948V32Z" fill="#1F2937"/>
</svg>
