<svg width="200" height="200" viewBox="0 0 200 200" fill="none" xmlns="http://www.w3.org/2000/svg">
<circle cx="100" cy="100" r="100" fill="#F5D0FE"/>
<g clip-path="url(#clip0_137_70)">
<path d="M127.286 44.6562C127.286 41.2996 125.875 38.0804 123.363 35.7069C120.851 33.3334 117.445 32 113.893 32C110.341 32 106.934 33.3334 104.423 35.7069C101.911 38.0804 100.5 41.2996 100.5 44.6562C100.5 48.0129 101.911 51.2321 104.423 53.6056C106.934 55.9791 110.341 57.3125 113.893 57.3125C117.445 57.3125 120.851 55.9791 123.363 53.6056C125.875 51.2321 127.286 48.0129 127.286 44.6562ZM73.0725 78.2744C75.8348 75.6641 79.6016 74.1875 83.5357 74.1875C84.0658 74.1875 84.596 74.2139 85.0982 74.2666L76.3929 98.9727C73.798 106.355 76.8672 114.477 83.8705 118.616L107.922 132.828L100.835 156.242C99.4676 160.725 102.23 165.392 106.973 166.684C111.717 167.976 116.655 165.365 118.022 160.883L126.03 134.41C127.676 128.979 125.305 123.178 120.254 120.198L104.406 110.838L113.028 89.1113L114.451 92.3545C118.636 101.794 128.374 107.938 139.2 107.938H145.143C150.081 107.938 154.071 104.167 154.071 99.5C154.071 94.833 150.081 91.0625 145.143 91.0625H139.2C135.6 91.0625 132.336 89.0059 130.969 85.8682L129.211 81.9131C125.137 72.6582 116.906 65.5918 106.75 62.6387L93.1618 58.6836C90.0647 57.7871 86.8281 57.3125 83.5636 57.3125C74.9141 57.3125 66.5993 60.5557 60.4888 66.3564L54.0156 72.4473C50.5279 75.7432 50.5279 81.0957 54.0156 84.3916C57.5033 87.6875 63.1674 87.6875 66.6551 84.3916L73.1004 78.3008L73.0725 78.2744ZM63.4464 124.812H46.9286C41.99 124.812 38 128.583 38 133.25C38 137.917 41.99 141.688 46.9286 141.688H66.3482C71.6496 141.688 76.4487 138.734 78.5971 134.173L81.8058 127.344L79.1551 125.762C74.2723 122.888 70.6451 118.695 68.5804 113.923L63.4464 124.812Z" fill="#1F2937"/>
</g>
<defs>
<clipPath id="clip0_137_70">
<rect width="125" height="135" fill="white" transform="translate(38 32)"/>
</clipPath>
</defs>
</svg>
