<svg width="200" height="200" viewBox="0 0 200 200" fill="none" xmlns="http://www.w3.org/2000/svg">
<circle cx="100" cy="100" r="100" fill="#DDD6FE"/>
<path d="M111.401 51.9146C111.68 52.1941 111.96 52.4736 112.239 52.7531C107.487 52.8928 103.365 53.3121 99.871 54.0108C94.5605 52.1941 85.3369 52.1941 72.2002 54.0108C61.0201 56.1071 53.1241 58.6226 48.5123 61.5574C43.7608 64.4922 41.0356 66.7282 40.3369 68.2655C40.1971 68.4052 40.1971 68.7546 40.3369 69.3136L46.2064 103.693C47.3244 110.401 50.2592 115.711 55.0108 119.624C59.4828 123.397 64.6536 126.821 70.5232 129.896C74.017 131.573 77.3011 132.621 80.3757 133.04C81.7732 135.276 83.3803 137.582 85.1971 139.958C79.048 140.238 72.8291 138.7 66.5403 135.346C60.3912 132.132 55.0807 128.638 50.6086 124.865C44.4595 119.554 40.7561 112.846 39.4984 104.741L33.6288 70.3618C33.2095 68.2655 33.5589 66.309 34.6769 64.4922C35.9347 62.1164 39.3586 59.2515 44.9487 55.8975C50.399 52.4037 59.1334 49.6087 71.1521 47.5124C83.1707 45.6956 92.3244 45.5559 98.6133 47.0931C105.042 48.4906 109.304 50.0978 111.401 51.9146ZM66.7499 106.208C68.7064 104.531 71.3617 102.994 74.7157 101.596L74.2965 103.693C74.017 105.649 73.8074 107.606 73.6676 109.562C72.6893 110.121 71.8508 110.75 71.1521 111.449C69.8943 112.287 68.7763 113.335 67.798 114.593C66.5403 116.27 65.003 116.62 63.1862 115.641C61.5092 114.244 61.1598 112.706 62.1381 111.029C63.5356 109.213 65.0729 107.606 66.7499 106.208ZM65.9114 80.4239C66.8897 78.6071 68.357 77.9782 70.3136 78.5372C72.1303 79.3757 72.8291 80.7733 72.4098 82.7298C71.0123 86.2236 68.3571 88.3897 64.444 89.2282C60.531 89.6475 57.3167 88.4596 54.8011 85.6646C53.6831 83.9875 53.8229 82.4503 55.2204 81.0528C57.0372 79.9347 58.6443 80.0745 60.0418 81.472C61.0201 82.4503 62.1381 82.7996 63.3959 82.5201C64.5139 82.3804 65.3524 81.6816 65.9114 80.4239ZM114.126 153.165C107.837 151.767 102.177 148.483 97.1459 143.312C92.1148 138.002 87.9921 132.761 84.7779 127.59C80.7251 120.463 79.4673 112.916 81.0046 104.95L86.8741 70.5714C87.1536 68.4751 88.062 66.7282 89.5993 65.3307C91.6956 63.5139 95.958 61.9068 102.387 60.5093C108.675 58.972 117.829 59.1118 129.848 60.9285C141.866 63.1646 150.601 65.9596 156.051 69.3136C161.641 72.6677 165.135 75.5326 166.533 77.9083C167.511 79.7251 167.79 81.6816 167.371 83.7779L161.501 118.157C160.244 126.262 156.54 132.97 150.391 138.281C145.64 142.334 140.05 145.967 133.621 149.182C127.053 152.536 120.554 153.863 114.126 153.165ZM101.967 138.491C106.579 143.102 110.981 145.758 115.174 146.456C119.506 147.155 124.607 146.037 130.477 143.102C136.346 140.168 141.517 136.814 145.989 133.04C150.741 129.127 153.675 123.747 154.793 116.899L160.663 82.7298C160.803 82.1708 160.803 81.8214 160.663 81.6816C159.964 80.1444 157.239 77.9083 152.487 74.9736C147.876 72.0388 139.98 69.5232 128.8 67.427C117.619 65.75 109.304 65.6102 103.854 67.0077C98.4036 68.2655 95.0496 69.4534 93.7918 70.5714C93.6521 70.7111 93.5822 71.0605 93.5822 71.6195L87.7126 105.998C86.4549 112.706 87.4331 118.716 90.6474 124.026C93.5822 129.057 97.3555 133.879 101.967 138.491ZM106.998 96.1459C105.601 97.5434 103.994 97.6832 102.177 96.5652C100.779 95.0279 100.64 93.4208 101.758 91.7437C104.273 88.9487 107.487 87.8307 111.401 88.3897C115.314 89.0885 117.969 91.1847 119.366 94.6785C119.786 96.6351 119.087 98.0326 117.27 98.8711C115.314 99.4301 113.846 98.8012 112.868 96.9844C112.449 95.8664 111.61 95.1677 110.352 94.8882C108.955 94.7484 107.837 95.1677 106.998 96.1459ZM138.023 113.964H138.233C138.792 113.824 139.421 113.615 140.119 113.335C140.818 113.056 141.587 112.706 142.425 112.287C143.963 112.008 144.801 112.637 144.941 114.174C144.801 115.012 144.592 115.851 144.312 116.689C144.172 117.388 143.963 118.087 143.683 118.786L143.474 118.995V119.205C141.237 124.236 137.814 128.079 133.202 130.734C128.45 133.25 123.21 134.088 117.48 133.25C111.75 132.272 107.138 129.826 103.644 125.913C100.011 121.86 97.9844 117.109 97.5651 111.658C97.5651 111.658 97.5651 111.588 97.5651 111.449C97.5651 110.61 97.5651 109.842 97.5651 109.143C97.7049 108.165 97.8446 107.256 97.9844 106.418C98.5434 105.02 99.5216 104.741 100.919 105.579C101.478 106.138 102.107 106.697 102.806 107.256C103.365 107.675 103.924 108.095 104.483 108.514C109.095 112.008 114.475 114.244 120.624 115.222C126.773 116.2 132.573 115.781 138.023 113.964ZM133.621 121.93C129.009 122.629 124.328 122.559 119.576 121.72C114.685 120.882 110.143 119.415 105.95 117.318C108.466 122.349 112.728 125.494 118.737 126.752C124.747 127.45 129.708 125.843 133.621 121.93ZM134.04 100.548C132.503 101.946 130.896 102.085 129.219 100.967C127.682 99.4301 127.542 97.8229 128.8 96.1459C131.175 93.3509 134.32 92.2329 138.233 92.7919C142.146 93.6304 144.801 95.7267 146.199 99.0807C146.758 101.037 146.059 102.505 144.102 103.483C142.146 103.902 140.678 103.203 139.7 101.387C139.281 100.269 138.442 99.5698 137.185 99.2903C135.787 99.1506 134.739 99.5698 134.04 100.548Z" fill="#1F2937"/>
</svg>
